<?xml version="1.0" standalone="no"?>
<!DOCTYPE svg PUBLIC "-//W3C//DTD SVG 20010904//EN"
 "http://www.w3.org/TR/2001/REC-SVG-20010904/DTD/svg10.dtd">
<svg version="1.0" xmlns="http://www.w3.org/2000/svg"
 width="120.000000pt" height="120.000000pt" viewBox="0 0 120.000000 120.000000"
 preserveAspectRatio="xMidYMid meet">
<metadata>
Created by potrace 1.11, written by Peter Selinger 2001-2013
</metadata>
<g transform="translate(0.000000,120.000000) scale(0.100000,-0.100000)"
fill="#000000" stroke="none">
<path d="M778 1179 c-34 -19 -41 -53 -46 -209 -2 -85 -5 -156 -7 -158 -2 -2
-16 3 -32 11 -45 22 -123 -5 -123 -43 0 -7 -11 -4 -27 7 -16 10 -35 18 -43 17
-8 -1 -23 -2 -33 -3 -22 -1 -70 -48 -62 -60 3 -5 1 -12 -4 -15 -9 -6 -22 40
-37 124 -4 25 -8 47 -9 50 -1 3 -5 19 -10 35 -15 59 -60 89 -107 73 -46 -16
-57 -74 -34 -178 34 -151 46 -241 46 -341 0 -161 11 -222 51 -300 25 -50 111
-123 162 -139 60 -19 245 -21 279 -4 15 8 30 14 33 14 16 -1 92 78 122 128 37
62 54 118 59 191 3 51 0 71 -16 98 -32 54 -41 145 -45 448 -2 197 -11 254 -39
256 -6 0 -22 2 -36 5 -14 2 -33 -1 -42 -7z"/>
</g>
</svg>
